P2
# Imagen guardada por el programa
4 100
255
0 64 192 255
0 64 192 255
0 64 192 255
0 64 192 255
0 64 192 255
0 64 192 255
0 64 192 255
0 64 192 255
0 64 192 255
0 64 192 255
0 64 192 255
0 64 192 255
0 64 192 255
0 64 192 255
0 64 192 255
0 64 192 255
0 64 192 255
0 64 192 255
0 64 192 255
0 64 192 255
0 64 192 255
0 64 192 255
0 64 192 255
0 64 192 255
0 64 192 255
0 64 192 255
0 64 192 255
0 64 192 255
0 64 192 255
0 64 192 255
0 64 192 255
0 64 192 255
0 64 192 255
0 64 192 255
0 64 192 255
0 64 192 255
0 64 192 255
0 64 192 255
0 64 192 255
0 64 192 255
0 64 192 255
0 64 192 255
0 64 192 255
0 64 192 255
0 64 192 255
0 64 192 255
0 64 192 255
0 64 192 255
0 64 192 255
0 64 192 255
0 64 192 255
0 64 192 255
0 64 192 255
0 64 192 255
0 64 192 255
0 64 192 255
0 64 192 255
0 64 192 255
0 64 192 255
0 64 192 255
0 64 192 255
0 64 192 255
0 64 192 255
0 64 192 255
0 64 192 255
0 64 192 255
0 64 192 255
0 64 192 255
0 64 192 255
0 64 192 255
0 64 192 255
0 64 192 255
0 64 192 255
0 64 192 255
0 64 192 255
0 64 192 255
0 64 192 255
0 64 192 255
0 64 192 255
0 64 192 255
0 64 192 255
0 64 192 255
0 64 192 255
0 64 192 255
0 64 192 255
0 64 192 255
0 64 192 255
0 64 192 255
0 64 192 255
0 64 192 255
0 64 192 255
0 64 192 255
0 64 192 255
0 64 192 255
0 64 192 255
0 64 192 255
0 64 192 255
0 64 192 255
0 64 192 255
0 64 192 255
