P2
# Imagen guardada por el programa
4 100
255
100 100 200 200
100 100 200 200
100 100 200 200
100 100 200 200
100 100 200 200
100 100 200 200
100 100 200 200
100 100 200 200
100 100 200 200
100 100 200 200
100 100 200 200
100 100 200 200
100 100 200 200
100 100 200 200
100 100 200 200
100 100 200 200
100 100 200 200
100 100 200 200
100 100 200 200
100 100 200 200
100 100 200 200
100 100 200 200
100 100 200 200
100 100 200 200
100 100 200 200
100 100 200 200
100 100 200 200
100 100 200 200
100 100 200 200
100 100 200 200
100 100 200 200
100 100 200 200
100 100 200 200
100 100 200 200
100 100 200 200
100 100 200 200
100 100 200 200
100 100 200 200
100 100 200 200
100 100 200 200
100 100 200 200
100 100 200 200
100 100 200 200
100 100 200 200
100 100 200 200
100 100 200 200
100 100 200 200
100 100 200 200
100 100 200 200
100 100 200 200
100 100 200 200
100 100 200 200
100 100 200 200
100 100 200 200
100 100 200 200
100 100 200 200
100 100 200 200
100 100 200 200
100 100 200 200
100 100 200 200
100 100 200 200
100 100 200 200
100 100 200 200
100 100 200 200
100 100 200 200
100 100 200 200
100 100 200 200
100 100 200 200
100 100 200 200
100 100 200 200
100 100 200 200
100 100 200 200
100 100 200 200
100 100 200 200
100 100 200 200
100 100 200 200
100 100 200 200
100 100 200 200
100 100 200 200
100 100 200 200
100 100 200 200
100 100 200 200
100 100 200 200
100 100 200 200
100 100 200 200
100 100 200 200
100 100 200 200
100 100 200 200
100 100 200 200
100 100 200 200
100 100 200 200
100 100 200 200
100 100 200 200
100 100 200 200
100 100 200 200
100 100 200 200
100 100 200 200
100 100 200 200
100 100 200 200
100 100 200 200
